<svg id="Capa_1" data-name="Capa 1" xmlns="http://www.w3.org/2000/svg" viewBox="0 0 986.32 1080"><defs><style>.cls-1,.cls-2,.cls-3{fill:#00a99d;}.cls-2{opacity:0.8;}.cls-2,.cls-3{isolation:isolate;}.cls-3{opacity:0.6;}</style></defs><title>login-bg</title><path class="cls-1" d="M1091.5,1080S959.17,941.52,1121,717.69,1131.26,328,1091.5,283.78c-79.11-88,0-283.78,0-283.78H1920V1080Z" transform="translate(-933.68 0)"/><path class="cls-2" d="M1049.19,1080s-139.09-138.48,31-362.31,10.76-389.68-31-433.91c-83.15-88,0-283.78,0-283.78H1920V1080Z" transform="translate(-933.68 0)"/><path class="cls-3" d="M990.82,1080s-148.41-138.48,33.11-362.31S1035.41,328,990.82,283.78c-88.72-88,0-283.78,0-283.78H1920V1080Z" transform="translate(-933.68 0)"/></svg>