<svg id="Capa_1" data-name="Capa 1" xmlns="http://www.w3.org/2000/svg" viewBox="0 0 312.54 312.54"><defs><style>.cls-1{opacity:0.8;}.cls-2{fill:#00a99d;}.cls-3{opacity:0.6;}.cls-4{opacity:0.4;}</style></defs><title>marco</title><g class="cls-1"><polygon class="cls-2" points="134.28 266.77 45.77 266.77 45.77 202.04 93.68 249.95 134.28 266.77"/></g><g class="cls-1"><polygon class="cls-2" points="110.5 45.77 62.59 93.68 45.77 134.28 45.77 45.77 110.5 45.77"/></g><g class="cls-1"><polygon class="cls-2" points="266.77 178.26 266.77 266.77 202.04 266.77 249.95 218.86 266.77 178.26"/></g><g class="cls-1"><polygon class="cls-2" points="266.77 45.77 266.77 110.5 218.86 62.59 178.26 45.77 266.77 45.77"/></g><g class="cls-3"><polygon class="cls-2" points="62.59 93.68 45.77 134.28 45.77 202.04 25.92 182.19 0 156.27 62.59 93.68"/></g><g class="cls-3"><polygon class="cls-2" points="202.04 266.77 182.19 286.62 156.27 312.54 110.5 266.77 93.68 249.95 134.28 266.77 202.04 266.77"/></g><g class="cls-3"><polygon class="cls-2" points="218.86 62.59 178.26 45.77 110.5 45.77 156.27 0 218.86 62.59"/></g><g class="cls-3"><polygon class="cls-2" points="312.54 156.27 266.77 202.04 249.95 218.86 266.77 178.26 266.77 110.5 312.54 156.27"/></g><g class="cls-4"><polygon class="cls-2" points="266.77 110.5 266.77 178.26 249.95 218.86 202.04 266.77 134.28 266.77 93.68 249.95 45.77 202.04 45.77 134.28 62.59 93.68 110.5 45.77 178.26 45.77 218.86 62.59 266.77 110.5"/></g><g class="cls-4"><polygon class="cls-2" points="93.68 249.95 45.77 230.1 11.89 216.07 25.92 182.19 45.77 134.28 45.77 202.04 93.68 249.95"/></g><g class="cls-4"><polygon class="cls-2" points="178.26 45.77 110.5 45.77 62.59 93.68 82.44 45.77 96.47 11.89 130.35 25.92 178.26 45.77"/></g><g class="cls-4"><polygon class="cls-2" points="249.95 218.86 230.1 266.77 216.07 300.65 182.19 286.62 134.28 266.77 202.04 266.77 249.95 218.86"/></g><g class="cls-4"><polygon class="cls-2" points="300.65 96.47 286.62 130.35 266.77 178.26 266.77 110.5 218.86 62.59 266.77 82.44 300.65 96.47"/></g></svg>